<svg xmlns="http://www.w3.org/2000/svg" xmlns:xlink="http://www.w3.org/1999/xlink" width="281.785" height="72.312" viewBox="0 0 281.785 72.312">
  <defs>
    <clipPath id="clip-path">
      <path id="Tracciato_3488" data-name="Tracciato 3488" d="M223.353,235.186a36.027,36.027,0,1,0,36.027-36.027,36.027,36.027,0,0,0-36.027,36.027" transform="translate(-223.353 -199.159)" fill="none"/>
    </clipPath>
  </defs>
  <g id="logo" transform="translate(-223.106 -198.912)">
    <g id="Raggruppa_158" data-name="Raggruppa 158" transform="translate(223.106 198.912)">
      <g id="Raggruppa_157" data-name="Raggruppa 157" transform="translate(0)">
        <path id="Tracciato_3449" data-name="Tracciato 3449" d="M223.353,235.186a36.027,36.027,0,1,0,36.027-36.027A36.027,36.027,0,0,0,223.353,235.186Z" transform="translate(-223.224 -199.03)" fill="none"/>
        <path id="Tracciato_3450" data-name="Tracciato 3450" d="M259.262,271.224a36.156,36.156,0,1,1,36.157-36.156A36.2,36.2,0,0,1,259.262,271.224Zm0-72.053a35.9,35.9,0,1,0,35.9,35.9A35.938,35.938,0,0,0,259.262,199.171Z" transform="translate(-223.106 -198.912)" fill="#385676"/>
      </g>
    </g>
    <path id="Tracciato_3451" data-name="Tracciato 3451" d="M398.265,226.041h-3.974v29.97h3.974v.946h-13.1v-.946h3.885v-29.97h-3.929V225.1h13.146Z" transform="translate(-77.216 -12.479)" fill="#385676"/>
    <path id="Tracciato_3452" data-name="Tracciato 3452" d="M444.174,226.04H440.7v19.542c.044,2.57.088,5.776-1.492,8.213-2.393,3.663-6.677,3.708-8.346,3.708-4.461,0-7.312-1.493-8.76-3.073-2.26-2.393-2.3-5.465-2.349-7.991v-20.4H415.74v-.945h13v.945h-4.107V247.3c0,2.039,0,4.416,1.315,6.278a7.507,7.507,0,0,0,6.189,2.851,6.965,6.965,0,0,0,6-2.984c1.492-2.171,1.492-4.83,1.492-7.134V226.04h-3.974v-.945h8.538v.945Z" transform="translate(-91.809 -12.479)" fill="#385676"/>
    <path id="Tracciato_3453" data-name="Tracciato 3453" d="M496.319,224.038l.266,8.346h-1.226c-.354-1.891-.679-3.6-2.526-5.273a7.239,7.239,0,0,0-4.83-1.891c-2.851,0-6.189,1.846-6.189,5.775,0,3.516,2.7,4.24,6.5,5.288l1.714.4c3.072.856,8.124,2.216,8.124,9.394,0,5.687-3.294,10.917-9.527,10.917a10,10,0,0,1-7.134-2.9l-1.713,2.349h-1.034l-.266-9.838h1.314a11.541,11.541,0,0,0,1.936,5.465,8.453,8.453,0,0,0,6.957,3.6c4.564,0,6.9-3.161,6.9-6.958,0-4.564-3.692-5.51-6.189-6.189l-1.8-.5a15.329,15.329,0,0,1-5.185-1.935,7.452,7.452,0,0,1-3.161-6.455c0-4.741,3.205-9.616,8.849-9.616A10.472,10.472,0,0,1,494,226l1.625-1.979h.694Z" transform="translate(-121.71 -11.968)" fill="#385676"/>
    <path id="Tracciato_3454" data-name="Tracciato 3454" d="M543.1,224.038l.266,8.346h-1.212c-.354-1.891-.679-3.6-2.526-5.273a7.239,7.239,0,0,0-4.83-1.891c-2.851,0-6.189,1.846-6.189,5.775,0,3.516,2.7,4.24,6.5,5.288l1.714.4c3.072.856,8.124,2.216,8.124,9.394,0,5.687-3.294,10.917-9.527,10.917a10,10,0,0,1-7.134-2.9l-1.713,2.349h-1.034l-.265-9.838h1.314a11.547,11.547,0,0,0,1.935,5.465,8.454,8.454,0,0,0,6.958,3.6c4.564,0,6.9-3.161,6.9-6.958,0-4.564-3.693-5.51-6.189-6.189l-1.8-.5a15.337,15.337,0,0,1-5.185-1.935,7.452,7.452,0,0,1-3.161-6.455c0-4.741,3.205-9.616,8.849-9.616A10.471,10.471,0,0,1,540.792,226l1.625-1.979h.68Z" transform="translate(-144.011 -11.968)" fill="#385676"/>
    <path id="Tracciato_3455" data-name="Tracciato 3455" d="M386.367,306.712c-.044,1.876,1.315,2.452,2.984,2.452.96,0,2.422-.517,2.422-1.846,0-1.034-1.034-1.448-1.876-1.654l-2.039-.5c-1.078-.266-2.053-.783-2.053-2.2,0-.9.576-2.57,3.146-2.57,1.8,0,3.383.975,3.383,2.836h-.871a2.253,2.253,0,0,0-2.5-2.1c-1.2,0-2.289.458-2.289,1.817,0,.856.635,1.211,1.373,1.388l2.231.547c1.285.339,2.363.9,2.363,2.407,0,.621-.251,2.615-3.486,2.615-2.156,0-3.752-.975-3.649-3.191Z" transform="translate(-77.399 -48.364)" fill="#010202"/>
    <path id="Tracciato_3456" data-name="Tracciato 3456" d="M405.845,307.5a1.783,1.783,0,0,0-1.861-1.581c-1.551,0-2.319,1.4-2.319,2.806s.768,2.807,2.319,2.807a1.965,1.965,0,0,0,1.92-1.876h.8a2.691,2.691,0,0,1-2.717,2.555c-2.024,0-3.117-1.6-3.117-3.486s1.108-3.486,3.117-3.486a2.468,2.468,0,0,1,2.673,2.261Z" transform="translate(-84.721 -50.678)" fill="#010202"/>
    <path id="Tracciato_3457" data-name="Tracciato 3457" d="M419.493,312.186h-.738V311h-.029a2.456,2.456,0,0,1-2.275,1.374c-1.669,0-2.319-.975-2.319-2.511v-4.284h.812v4.3c.044,1.2.487,1.817,1.758,1.817,1.374,0,1.979-1.3,1.979-2.644v-3.471h.812v6.6Z" transform="translate(-91.043 -50.839)" fill="#010202"/>
    <path id="Tracciato_3458" data-name="Tracciato 3458" d="M432.895,308.73c0,1.891-1.093,3.486-3.117,3.486s-3.117-1.6-3.117-3.486,1.093-3.486,3.117-3.486,3.117,1.6,3.117,3.486m-5.436,0c0,1.4.768,2.822,2.319,2.822s2.319-1.4,2.319-2.822c0-1.4-.768-2.806-2.319-2.806s-2.319,1.4-2.319,2.806" transform="translate(-97.014 -50.678)" fill="#010202"/>
    <rect id="Rettangolo_154" data-name="Rettangolo 154" width="0.798" height="9.129" transform="translate(337.091 252.218)" fill="#010202"/>
    <path id="Tracciato_3459" data-name="Tracciato 3459" d="M444.99,307.432c.074-1.551,1.167-2.216,2.673-2.216,1.167,0,2.423.355,2.423,2.127v3.5a.426.426,0,0,0,.472.487,1.082,1.082,0,0,0,.252-.044v.679a1.92,1.92,0,0,1-.517.045c-.812,0-.945-.458-.945-1.152h-.03a2.516,2.516,0,0,1-2.408,1.344c-1.211,0-2.216-.606-2.216-1.935,0-1.861,1.8-1.92,3.545-2.127.665-.074,1.034-.163,1.034-.9,0-1.093-.783-1.359-1.728-1.359-1,0-1.743.458-1.773,1.536h-.783Zm4.283.975h-.029c-.1.192-.457.251-.679.3-1.374.251-3.072.237-3.072,1.522a1.373,1.373,0,0,0,1.477,1.3,2.124,2.124,0,0,0,2.3-2.068v-1.048Z" transform="translate(-105.609 -50.665)" fill="#010202"/>
    <path id="Tracciato_3460" data-name="Tracciato 3460" d="M464.986,300.757h.871v5.657c-.015,2.128,1,2.925,2.673,2.925,1.684,0,2.7-.812,2.688-2.925v-5.657h.871v5.85a3.553,3.553,0,0,1-7.1,0Z" transform="translate(-115.28 -48.539)" fill="#010202"/>
    <path id="Tracciato_3461" data-name="Tracciato 3461" d="M481.58,305.436h.8v1.137h.03a2.237,2.237,0,0,1,2.112-1.329c1.847,0,2.423.975,2.423,2.541v4.254h-.813v-4.121c0-1.137-.369-1.995-1.669-1.995a2.071,2.071,0,0,0-2.068,2.26v3.856h-.8v-6.6Z" transform="translate(-123.189 -50.678)" fill="#010202"/>
    <path id="Tracciato_3462" data-name="Tracciato 3462" d="M494.76,300.757h.812v1.285h-.812Zm0,2.541h.812v6.6h-.812Z" transform="translate(-129.47 -48.539)" fill="#010202"/>
    <path id="Tracciato_3463" data-name="Tracciato 3463" d="M497.836,305.611h.9l2.068,5.79h.03l2.038-5.79h.827l-2.467,6.588h-.857Z" transform="translate(-130.936 -50.853)" fill="#010202"/>
    <path id="Tracciato_3464" data-name="Tracciato 3464" d="M510.727,308.966c.015,1.182.62,2.6,2.171,2.6a2,2,0,0,0,2.068-1.684h.813a2.692,2.692,0,0,1-2.881,2.364c-2.1,0-2.983-1.61-2.983-3.486,0-1.743.886-3.486,2.983-3.486,2.128,0,2.969,1.861,2.91,3.707h-5.081Zm4.269-.68a2.223,2.223,0,0,0-2.1-2.349,2.344,2.344,0,0,0-2.171,2.349Z" transform="translate(-136.693 -50.692)" fill="#010202"/>
    <path id="Tracciato_3465" data-name="Tracciato 3465" d="M523.235,305.528h.738v1.551H524a2.447,2.447,0,0,1,2.5-1.64v.8a2.272,2.272,0,0,0-2.452,2.363v3.516h-.8v-6.588Z" transform="translate(-143.042 -50.77)" fill="#010202"/>
    <path id="Tracciato_3466" data-name="Tracciato 3466" d="M534.562,307.356a1.532,1.532,0,0,0-1.728-1.448c-.724,0-1.565.281-1.565,1.138,0,.709.812.975,1.374,1.107l1.078.251a1.93,1.93,0,0,1,1.876,1.832c0,1.433-1.418,1.979-2.644,1.979a2.4,2.4,0,0,1-2.718-2.334h.812a1.74,1.74,0,0,0,1.95,1.654c.753,0,1.8-.325,1.8-1.256,0-.768-.724-1.019-1.448-1.2l-1.034-.237c-1.049-.281-1.847-.635-1.847-1.758,0-1.344,1.315-1.847,2.482-1.847a2.176,2.176,0,0,1,2.423,2.127h-.813Z" transform="translate(-146.377 -50.678)" fill="#010202"/>
    <path id="Tracciato_3467" data-name="Tracciato 3467" d="M542.736,300.757h.8v1.285h-.8Zm0,2.541h.8v6.6h-.8Z" transform="translate(-152.336 -48.539)" fill="#010202"/>
    <path id="Tracciato_3468" data-name="Tracciato 3468" d="M547.861,303.809h1.345v.679h-1.345v4.446c0,.532.074.827.651.871a5.417,5.417,0,0,0,.694-.045v.695c-.236,0-.473.029-.724.029-1.078,0-1.448-.354-1.433-1.477v-4.52H545.9v-.679h1.153v-1.979h.812Z" transform="translate(-153.842 -49.05)" fill="#010202"/>
    <path id="Tracciato_3469" data-name="Tracciato 3469" d="M554.052,307.432c.073-1.551,1.167-2.216,2.673-2.216,1.167,0,2.438.355,2.438,2.127v3.5a.426.426,0,0,0,.473.487,1.082,1.082,0,0,0,.251-.044v.679a1.921,1.921,0,0,1-.517.045c-.812,0-.945-.458-.945-1.152h-.03a2.516,2.516,0,0,1-2.408,1.344c-1.211,0-2.216-.606-2.216-1.935,0-1.861,1.8-1.92,3.545-2.127.665-.074,1.034-.163,1.034-.9,0-1.093-.783-1.359-1.728-1.359-1,0-1.743.458-1.773,1.536h-.8Zm4.3.975h-.029c-.1.192-.458.251-.68.3-1.374.251-3.072.237-3.072,1.522a1.364,1.364,0,0,0,1.477,1.3,2.124,2.124,0,0,0,2.3-2.068Z" transform="translate(-157.595 -50.665)" fill="#010202"/>
    <path id="Tracciato_3470" data-name="Tracciato 3470" d="M567.148,305.528h.739v1.551h.029a2.448,2.448,0,0,1,2.5-1.64v.8a2.272,2.272,0,0,0-2.452,2.363v3.516h-.8v-6.588Z" transform="translate(-163.971 -50.77)" fill="#010202"/>
    <path id="Tracciato_3471" data-name="Tracciato 3471" d="M574.852,300.757h.813v1.285h-.813Zm0,2.541h.813v6.6h-.813Z" transform="translate(-167.642 -48.539)" fill="#010202"/>
    <path id="Tracciato_3472" data-name="Tracciato 3472" d="M578.929,307.432c.074-1.551,1.168-2.216,2.674-2.216,1.167,0,2.422.355,2.422,2.127v3.5a.426.426,0,0,0,.473.487,1.077,1.077,0,0,0,.251-.044v.679a1.919,1.919,0,0,1-.517.045c-.812,0-.945-.458-.945-1.152h-.029a2.517,2.517,0,0,1-2.408,1.344c-1.211,0-2.216-.606-2.216-1.935,0-1.861,1.8-1.92,3.545-2.127.665-.074,1.034-.163,1.034-.9,0-1.093-.783-1.359-1.728-1.359-1,0-1.743.458-1.773,1.536h-.783Zm4.3.975h-.03c-.1.192-.458.251-.679.3-1.374.251-3.073.237-3.073,1.522a1.365,1.365,0,0,0,1.478,1.3,2.124,2.124,0,0,0,2.3-2.068Z" transform="translate(-169.445 -50.665)" fill="#010202"/>
    <path id="Tracciato_3473" data-name="Tracciato 3473" d="M599.129,306.712c-.044,1.876,1.315,2.452,2.984,2.452.96,0,2.422-.517,2.422-1.846,0-1.034-1.034-1.448-1.876-1.654l-2.038-.5c-1.079-.266-2.053-.783-2.053-2.2,0-.9.576-2.57,3.146-2.57,1.8,0,3.382.975,3.382,2.836h-.872a2.252,2.252,0,0,0-2.5-2.1c-1.2,0-2.289.458-2.289,1.817,0,.856.635,1.211,1.374,1.388l2.23.547c1.3.339,2.363.9,2.363,2.407,0,.621-.251,2.615-3.486,2.615-2.156,0-3.752-.975-3.649-3.191Z" transform="translate(-178.802 -48.364)" fill="#010202"/>
    <path id="Tracciato_3474" data-name="Tracciato 3474" d="M619.555,312.186h-.739V311h-.029a2.456,2.456,0,0,1-2.275,1.374c-1.654,0-2.319-.975-2.319-2.511v-4.284h.812v4.3c.044,1.2.488,1.817,1.758,1.817,1.373,0,1.979-1.3,1.979-2.644v-3.471h.812Z" transform="translate(-186.392 -50.839)" fill="#010202"/>
    <path id="Tracciato_3475" data-name="Tracciato 3475" d="M627.331,305.436h.739v1.256h.029a2.453,2.453,0,0,1,2.349-1.448c2.009,0,2.969,1.625,2.969,3.486s-.96,3.486-2.969,3.486a2.348,2.348,0,0,1-2.29-1.448h-.03v3.693h-.812v-9.026Zm3.117.487c-1.773,0-2.32,1.315-2.32,2.806,0,1.374.606,2.807,2.32,2.807,1.536,0,2.156-1.448,2.156-2.807s-.621-2.806-2.156-2.806" transform="translate(-192.647 -50.678)" fill="#010202"/>
    <path id="Tracciato_3476" data-name="Tracciato 3476" d="M641.534,308.966c.015,1.182.635,2.6,2.172,2.6a2,2,0,0,0,2.067-1.684h.813a2.692,2.692,0,0,1-2.88,2.364c-2.1,0-2.984-1.61-2.984-3.486,0-1.743.886-3.486,2.984-3.486,2.127,0,2.969,1.861,2.91,3.707h-5.082Zm4.269-.68a2.223,2.223,0,0,0-2.1-2.349,2.346,2.346,0,0,0-2.172,2.349Z" transform="translate(-199.036 -50.692)" fill="#010202"/>
    <path id="Tracciato_3477" data-name="Tracciato 3477" d="M654.042,305.528h.739v1.551h.03a2.447,2.447,0,0,1,2.5-1.64v.8a2.272,2.272,0,0,0-2.452,2.363v3.516h-.8v-6.588Z" transform="translate(-205.384 -50.77)" fill="#010202"/>
    <path id="Tracciato_3478" data-name="Tracciato 3478" d="M661.775,300.757h.8v1.285h-.8Zm0,2.541h.8v6.6h-.8Z" transform="translate(-209.07 -48.539)" fill="#010202"/>
    <path id="Tracciato_3479" data-name="Tracciato 3479" d="M671.875,308.73c0,1.891-1.094,3.486-3.117,3.486s-3.116-1.6-3.116-3.486,1.092-3.486,3.116-3.486,3.117,1.6,3.117,3.486m-5.436,0c0,1.4.768,2.822,2.319,2.822s2.319-1.4,2.319-2.822c0-1.4-.767-2.806-2.319-2.806s-2.319,1.4-2.319,2.806" transform="translate(-210.913 -50.678)" fill="#010202"/>
    <path id="Tracciato_3480" data-name="Tracciato 3480" d="M679.865,305.528h.739v1.551h.03a2.447,2.447,0,0,1,2.5-1.64v.8a2.272,2.272,0,0,0-2.452,2.363v3.516h-.8v-6.588Z" transform="translate(-217.692 -50.77)" fill="#010202"/>
    <path id="Tracciato_3481" data-name="Tracciato 3481" d="M687.281,308.966c.015,1.182.621,2.6,2.172,2.6a2,2,0,0,0,2.067-1.684h.813a2.692,2.692,0,0,1-2.88,2.364c-2.1,0-2.984-1.61-2.984-3.486,0-1.743.886-3.486,2.984-3.486,2.127,0,2.969,1.861,2.91,3.707h-5.082Zm4.269-.68a2.222,2.222,0,0,0-2.1-2.349,2.346,2.346,0,0,0-2.172,2.349Z" transform="translate(-220.839 -50.692)" fill="#010202"/>
    <path id="Tracciato_3482" data-name="Tracciato 3482" d="M706.9,300.757h4.047a2.616,2.616,0,1,1,0,5.229h-3.176V309.9H706.9v-9.144Zm.871,4.476h3a1.869,1.869,0,1,0,0-3.722h-3Z" transform="translate(-230.577 -48.539)" fill="#010202"/>
    <path id="Tracciato_3483" data-name="Tracciato 3483" d="M721.589,307.432c.074-1.551,1.167-2.216,2.674-2.216,1.167,0,2.422.355,2.422,2.127v3.5a.426.426,0,0,0,.473.487,1.071,1.071,0,0,0,.251-.044v.679a1.912,1.912,0,0,1-.517.045c-.813,0-.945-.458-.945-1.152h-.029a2.518,2.518,0,0,1-2.408,1.344c-1.211,0-2.216-.606-2.216-1.935,0-1.861,1.8-1.92,3.545-2.127.665-.074,1.034-.163,1.034-.9,0-1.093-.783-1.359-1.728-1.359-1,0-1.743.458-1.773,1.536h-.783Zm4.3.975h-.029c-.1.192-.458.251-.679.3-1.374.251-3.072.237-3.072,1.522a1.364,1.364,0,0,0,1.477,1.3,2.124,2.124,0,0,0,2.3-2.068Z" transform="translate(-237.437 -50.665)" fill="#010202"/>
    <path id="Tracciato_3484" data-name="Tracciato 3484" d="M733.26,305.611h.9l2.068,5.79h.015l2.053-5.79h.827l-2.467,6.588H735.8Z" transform="translate(-243.14 -50.853)" fill="#010202"/>
    <path id="Tracciato_3485" data-name="Tracciato 3485" d="M746.017,300.757h.812v1.285h-.812Zm0,2.541h.812v6.6h-.812Z" transform="translate(-249.22 -48.539)" fill="#010202"/>
    <path id="Tracciato_3486" data-name="Tracciato 3486" d="M750.093,307.432c.074-1.551,1.167-2.216,2.674-2.216,1.167,0,2.422.355,2.422,2.127v3.5a.426.426,0,0,0,.473.487,1.073,1.073,0,0,0,.251-.044v.679a1.916,1.916,0,0,1-.517.045c-.813,0-.946-.458-.946-1.152h-.029a2.516,2.516,0,0,1-2.408,1.344c-1.211,0-2.216-.606-2.216-1.935,0-1.861,1.8-1.92,3.545-2.127.665-.074,1.034-.163,1.034-.9,0-1.093-.783-1.359-1.728-1.359-1,0-1.743.458-1.773,1.536h-.783Zm4.3.975h-.03c-.1.192-.458.251-.68.3-1.373.251-3.072.237-3.072,1.522a1.364,1.364,0,0,0,1.477,1.3,2.125,2.125,0,0,0,2.3-2.068v-1.048Z" transform="translate(-251.022 -50.665)" fill="#010202"/>
    <g id="Raggruppa_223" data-name="Raggruppa 223" transform="translate(223.235 199.041)">
      <g id="Raggruppa_160" data-name="Raggruppa 160" transform="translate(0 0)">
        <g id="Raggruppa_159" data-name="Raggruppa 159" clip-path="url(#clip-path)">
          <path id="Tracciato_3487" data-name="Tracciato 3487" d="M298.769,231.021h-30.1V222.9l.072-.048c.734-.494.287-1.5.283-1.513a.687.687,0,0,0-.289-.484,1.324,1.324,0,0,0-.9-.1.875.875,0,0,0-.667.36,2.014,2.014,0,0,0-.129,1.377l.046.178-.182.023a3.549,3.549,0,0,1-3.021-.919c-2.45-2.321-2.081-8.022-2.064-8.263l.01-.151h1.9c-3.367-4.8-12.185-6.164-12.276-6.178l-.12-.018-.016-.12a1.553,1.553,0,1,0-3.106,0l-.017.12-.12.018c-.09.014-8.894,1.376-12.275,6.178h1.9l.01.151c.017.241.386,5.942-2.064,8.263a3.553,3.553,0,0,1-3.022.919l-.182-.023.046-.178a2.013,2.013,0,0,0-.129-1.377.858.858,0,0,0-.649-.357,1.386,1.386,0,0,0-.92.1.638.638,0,0,0-.276.446c-.03.078-.46,1.058.271,1.55l.071.048v8.121H201.4V230.7h29.129v-7.629a1.556,1.556,0,0,1-.325-1.863.909.909,0,0,1,.406-.622,1.671,1.671,0,0,1,1.151-.149,1.16,1.16,0,0,1,.861.494,2.11,2.11,0,0,1,.212,1.457,3.2,3.2,0,0,0,2.585-.851c2.127-2.015,2.013-6.932,1.972-7.856h-2.2l.162-.25c3.12-4.812,11.458-6.367,12.55-6.552a1.859,1.859,0,0,1,3.71,0c1.093.184,9.444,1.74,12.55,6.552l.161.249h-2.2c-.041.924-.154,5.842,1.972,7.856a3.205,3.205,0,0,0,2.585.851,2.107,2.107,0,0,1,.212-1.457,1.174,1.174,0,0,1,.879-.5,1.65,1.65,0,0,1,1.133.151.956.956,0,0,1,.418.659,1.531,1.531,0,0,1-.337,1.826V230.7h29.779Z" transform="translate(-212.889 -202.011)" fill="#385676"/>
        </g>
      </g>
      <g id="Raggruppa_162" data-name="Raggruppa 162" transform="translate(0 0)">
        <g id="Raggruppa_161" data-name="Raggruppa 161" clip-path="url(#clip-path)">
          <rect id="Rettangolo_155" data-name="Rettangolo 155" width="2.851" height="10.842" transform="translate(15.081 35.643)" fill="#385676"/>
        </g>
      </g>
      <g id="Raggruppa_164" data-name="Raggruppa 164" transform="translate(0 0)">
        <g id="Raggruppa_163" data-name="Raggruppa 163" clip-path="url(#clip-path)">
          <rect id="Rettangolo_156" data-name="Rettangolo 156" width="2.851" height="10.842" transform="translate(15.081 62.851)" fill="#385676"/>
        </g>
      </g>
      <g id="Raggruppa_166" data-name="Raggruppa 166" transform="translate(0 0)">
        <g id="Raggruppa_165" data-name="Raggruppa 165" clip-path="url(#clip-path)">
          <rect id="Rettangolo_157" data-name="Rettangolo 157" width="1.388" height="7.991" transform="translate(27.12 47.504)" fill="#385676"/>
        </g>
      </g>
      <g id="Raggruppa_168" data-name="Raggruppa 168" transform="translate(0 0)">
        <g id="Raggruppa_167" data-name="Raggruppa 167" clip-path="url(#clip-path)">
          <rect id="Rettangolo_158" data-name="Rettangolo 158" width="1.388" height="7.991" transform="translate(29.853 47.504)" fill="#385676"/>
        </g>
      </g>
      <g id="Raggruppa_170" data-name="Raggruppa 170" transform="translate(0 0)">
        <g id="Raggruppa_169" data-name="Raggruppa 169" clip-path="url(#clip-path)">
          <rect id="Rettangolo_159" data-name="Rettangolo 159" width="1.389" height="7.991" transform="translate(32.305 47.504)" fill="#385676"/>
        </g>
      </g>
      <g id="Raggruppa_172" data-name="Raggruppa 172" transform="translate(0 0)">
        <g id="Raggruppa_171" data-name="Raggruppa 171" clip-path="url(#clip-path)">
          <rect id="Rettangolo_160" data-name="Rettangolo 160" width="1.388" height="7.991" transform="translate(34.638 47.504)" fill="#385676"/>
        </g>
      </g>
      <g id="Raggruppa_174" data-name="Raggruppa 174" transform="translate(0 0)">
        <g id="Raggruppa_173" data-name="Raggruppa 173" clip-path="url(#clip-path)">
          <rect id="Rettangolo_161" data-name="Rettangolo 161" width="1.388" height="7.991" transform="translate(37.962 47.504)" fill="#385676"/>
        </g>
      </g>
      <g id="Raggruppa_176" data-name="Raggruppa 176" transform="translate(0 0)">
        <g id="Raggruppa_175" data-name="Raggruppa 175" clip-path="url(#clip-path)">
          <rect id="Rettangolo_162" data-name="Rettangolo 162" width="1.389" height="7.991" transform="translate(40.709 47.504)" fill="#385676"/>
        </g>
      </g>
      <g id="Raggruppa_178" data-name="Raggruppa 178" transform="translate(0 0)">
        <g id="Raggruppa_177" data-name="Raggruppa 177" clip-path="url(#clip-path)">
          <rect id="Rettangolo_163" data-name="Rettangolo 163" width="1.388" height="7.991" transform="translate(43.147 47.504)" fill="#385676"/>
        </g>
      </g>
      <g id="Raggruppa_180" data-name="Raggruppa 180" transform="translate(0 0)">
        <g id="Raggruppa_179" data-name="Raggruppa 179" clip-path="url(#clip-path)">
          <rect id="Rettangolo_164" data-name="Rettangolo 164" width="1.389" height="7.991" transform="translate(45.495 47.504)" fill="#385676"/>
        </g>
      </g>
      <g id="Raggruppa_182" data-name="Raggruppa 182" transform="translate(0 0)">
        <g id="Raggruppa_181" data-name="Raggruppa 181" clip-path="url(#clip-path)">
          <rect id="Rettangolo_165" data-name="Rettangolo 165" width="5.332" height="10.842" transform="translate(19.734 35.643)" fill="#385676"/>
        </g>
      </g>
      <g id="Raggruppa_184" data-name="Raggruppa 184" transform="translate(0 0)">
        <g id="Raggruppa_183" data-name="Raggruppa 183" clip-path="url(#clip-path)">
          <rect id="Rettangolo_166" data-name="Rettangolo 166" width="5.332" height="10.842" transform="translate(48.937 35.643)" fill="#385676"/>
        </g>
      </g>
      <g id="Raggruppa_186" data-name="Raggruppa 186" transform="translate(0 0)">
        <g id="Raggruppa_185" data-name="Raggruppa 185" clip-path="url(#clip-path)">
          <rect id="Rettangolo_167" data-name="Rettangolo 167" width="5.332" height="10.842" transform="translate(19.734 62.851)" fill="#385676"/>
        </g>
      </g>
      <g id="Raggruppa_188" data-name="Raggruppa 188" transform="translate(0 0)">
        <g id="Raggruppa_187" data-name="Raggruppa 187" clip-path="url(#clip-path)">
          <rect id="Rettangolo_168" data-name="Rettangolo 168" width="5.332" height="10.842" transform="translate(48.937 62.851)" fill="#385676"/>
        </g>
      </g>
      <g id="Raggruppa_190" data-name="Raggruppa 190" transform="translate(0 0)">
        <g id="Raggruppa_189" data-name="Raggruppa 189" clip-path="url(#clip-path)">
          <rect id="Rettangolo_169" data-name="Rettangolo 169" width="8.981" height="10.842" transform="translate(27.031 35.643)" fill="#385676"/>
        </g>
      </g>
      <g id="Raggruppa_192" data-name="Raggruppa 192" transform="translate(0 0)">
        <g id="Raggruppa_191" data-name="Raggruppa 191" clip-path="url(#clip-path)">
          <path id="Tracciato_3504" data-name="Tracciato 3504" d="M284.876,236.72a4.683,4.683,0,1,0,4.682-4.682,4.684,4.684,0,0,0-4.682,4.682" transform="translate(-252.675 -214.829)" fill="#385676"/>
        </g>
      </g>
      <g id="Raggruppa_194" data-name="Raggruppa 194" transform="translate(0 0)">
        <g id="Raggruppa_193" data-name="Raggruppa 193" clip-path="url(#clip-path)">
          <path id="Tracciato_3506" data-name="Tracciato 3506" d="M274.971,263.155a4.5,4.5,0,1,0,4.5-4.505,4.5,4.5,0,0,0-4.5,4.505" transform="translate(-247.954 -227.512)" fill="#385676"/>
        </g>
      </g>
      <g id="Raggruppa_196" data-name="Raggruppa 196" transform="translate(0 0)">
        <g id="Raggruppa_195" data-name="Raggruppa 195" clip-path="url(#clip-path)">
          <rect id="Rettangolo_170" data-name="Rettangolo 170" width="8.981" height="10.842" transform="translate(3.693 35.643)" fill="#385676"/>
        </g>
      </g>
      <g id="Raggruppa_198" data-name="Raggruppa 198" transform="translate(0 0)">
        <g id="Raggruppa_197" data-name="Raggruppa 197" clip-path="url(#clip-path)">
          <path id="Tracciato_3509" data-name="Tracciato 3509" d="M230.38,263.155a4.505,4.505,0,1,0,4.505-4.505,4.5,4.5,0,0,0-4.505,4.505" transform="translate(-226.702 -227.512)" fill="#385676"/>
        </g>
      </g>
      <g id="Raggruppa_200" data-name="Raggruppa 200" transform="translate(0 0)">
        <g id="Raggruppa_199" data-name="Raggruppa 199" clip-path="url(#clip-path)">
          <rect id="Rettangolo_171" data-name="Rettangolo 171" width="8.981" height="10.842" transform="translate(37.932 35.643)" fill="#385676"/>
        </g>
      </g>
      <g id="Raggruppa_202" data-name="Raggruppa 202" transform="translate(0 0)">
        <g id="Raggruppa_201" data-name="Raggruppa 201" clip-path="url(#clip-path)">
          <path id="Tracciato_3512" data-name="Tracciato 3512" d="M295.8,263.155a4.505,4.505,0,1,0,4.505-4.505,4.5,4.5,0,0,0-4.505,4.505" transform="translate(-257.88 -227.512)" fill="#385676"/>
        </g>
      </g>
      <g id="Raggruppa_204" data-name="Raggruppa 204" transform="translate(0 0)">
        <g id="Raggruppa_203" data-name="Raggruppa 203" clip-path="url(#clip-path)">
          <rect id="Rettangolo_172" data-name="Rettangolo 172" width="8.981" height="10.842" transform="translate(27.031 62.851)" fill="#385676"/>
        </g>
      </g>
      <g id="Raggruppa_206" data-name="Raggruppa 206" transform="translate(0 0)">
        <g id="Raggruppa_205" data-name="Raggruppa 205" clip-path="url(#clip-path)">
          <path id="Tracciato_3515" data-name="Tracciato 3515" d="M274.971,315.14a4.5,4.5,0,1,0,4.5-4.5,4.5,4.5,0,0,0-4.5,4.5" transform="translate(-247.954 -252.289)" fill="#385676"/>
        </g>
      </g>
      <g id="Raggruppa_208" data-name="Raggruppa 208" transform="translate(0 0)">
        <g id="Raggruppa_207" data-name="Raggruppa 207" clip-path="url(#clip-path)">
          <rect id="Rettangolo_173" data-name="Rettangolo 173" width="8.981" height="10.842" transform="translate(3.693 62.851)" fill="#385676"/>
        </g>
      </g>
      <g id="Raggruppa_210" data-name="Raggruppa 210" transform="translate(0 0)">
        <g id="Raggruppa_209" data-name="Raggruppa 209" clip-path="url(#clip-path)">
          <rect id="Rettangolo_174" data-name="Rettangolo 174" width="8.981" height="10.842" transform="translate(37.932 62.851)" fill="#385676"/>
        </g>
      </g>
      <g id="Raggruppa_212" data-name="Raggruppa 212" transform="translate(0 0)">
        <g id="Raggruppa_211" data-name="Raggruppa 211" clip-path="url(#clip-path)">
          <path id="Tracciato_3519" data-name="Tracciato 3519" d="M295.8,315.14a4.505,4.505,0,1,0,4.505-4.5,4.5,4.5,0,0,0-4.505,4.5" transform="translate(-257.88 -252.289)" fill="#385676"/>
        </g>
      </g>
      <g id="Raggruppa_214" data-name="Raggruppa 214" transform="translate(0 0)">
        <g id="Raggruppa_213" data-name="Raggruppa 213" clip-path="url(#clip-path)">
          <path id="Tracciato_3521" data-name="Tracciato 3521" d="M349.361,310.84l-19.47-12.248V252.978h.324v45.435l19.319,12.153Z" transform="translate(-274.129 -224.809)" fill="#385676"/>
        </g>
      </g>
      <g id="Raggruppa_216" data-name="Raggruppa 216" transform="translate(0 0)">
        <g id="Raggruppa_215" data-name="Raggruppa 215" clip-path="url(#clip-path)">
          <line id="Linea_15" data-name="Linea 15" x2="36.012" transform="translate(-12.186 10.03)" fill="none"/>
        </g>
      </g>
      <g id="Raggruppa_218" data-name="Raggruppa 218" transform="translate(0 0)">
        <g id="Raggruppa_217" data-name="Raggruppa 217" clip-path="url(#clip-path)">
          <rect id="Rettangolo_175" data-name="Rettangolo 175" width="36.012" height="0.324" transform="translate(-12.186 9.868)" fill="#385676"/>
        </g>
      </g>
      <g id="Raggruppa_220" data-name="Raggruppa 220" transform="translate(0 0)">
        <g id="Raggruppa_219" data-name="Raggruppa 219" clip-path="url(#clip-path)">
          <line id="Linea_16" data-name="Linea 16" x2="36.012" transform="translate(49.853 10.03)" fill="none"/>
        </g>
      </g>
      <g id="Raggruppa_222" data-name="Raggruppa 222" transform="translate(0 0)">
        <g id="Raggruppa_221" data-name="Raggruppa 221" clip-path="url(#clip-path)">
          <rect id="Rettangolo_176" data-name="Rettangolo 176" width="36.012" height="0.324" transform="translate(49.853 9.868)" fill="#385676"/>
        </g>
      </g>
    </g>
    <g id="Raggruppa_224" data-name="Raggruppa 224" transform="translate(223.106 198.912)">
      <path id="Tracciato_3527" data-name="Tracciato 3527" d="M259.262,271.224a36.156,36.156,0,1,1,36.157-36.156A36.2,36.2,0,0,1,259.262,271.224Zm0-72.053a35.9,35.9,0,1,0,35.9,35.9A35.938,35.938,0,0,0,259.262,199.171Z" transform="translate(-223.106 -198.912)" fill="#385676"/>
    </g>
  </g>
</svg>
